<svg width="17" height="17" viewBox="0 0 17 17" fill="none" xmlns="http://www.w3.org/2000/svg">
<path d="M15.1867 7.82708L8.67709 14.3367C7.87961 15.1341 6.79801 15.5821 5.67021 15.5821C4.54241 15.5821 3.46081 15.1341 2.66334 14.3367C1.86586 13.5392 1.41785 12.4576 1.41785 11.3298C1.41785 10.202 1.86586 9.12038 2.66334 8.32291L9.17292 1.81333C9.70457 1.28168 10.4256 0.983002 11.1775 0.983002C11.9294 0.983002 12.6504 1.28168 13.1821 1.81333C13.7137 2.34498 14.0124 3.06605 14.0124 3.81791C14.0124 4.56977 13.7137 5.29085 13.1821 5.82249L6.66542 12.3321C6.39959 12.5979 6.03906 12.7472 5.66313 12.7472C5.28719 12.7472 4.92666 12.5979 4.66084 12.3321C4.39501 12.0663 4.24567 11.7057 4.24567 11.3298C4.24567 10.9539 4.39501 10.5933 4.66084 10.3275L10.6746 4.32083" stroke="#989BA1" stroke-linecap="round" stroke-linejoin="round"/>
</svg>
