<svg width="17" height="17" viewBox="0 0 17 17" fill="none" xmlns="http://www.w3.org/2000/svg">
<path d="M2.62064 12.226C2.49398 12.226 2.36731 12.1793 2.26731 12.0793C1.35398 11.1593 0.847311 9.94599 0.847311 8.65932C0.847311 5.98599 3.01398 3.81266 5.68064 3.81266L9.72731 3.82599L9.00064 3.13266C8.80064 2.93932 8.79398 2.62599 8.98731 2.42599C9.18064 2.22599 9.49398 2.21932 9.69398 2.41266L11.3206 3.97266C11.4673 4.11266 11.514 4.33266 11.4406 4.51932C11.3673 4.70599 11.1806 4.83266 10.974 4.83266L5.68064 4.81932C3.56731 4.81932 1.84731 6.54599 1.84731 8.66599C1.84731 9.68599 2.24731 10.6527 2.97398 11.3793C3.16731 11.5727 3.16731 11.8927 2.97398 12.086C2.87398 12.1793 2.74731 12.226 2.62064 12.226Z" fill="white"/>
<path d="M6.68064 15.2727C6.55398 15.2727 6.43398 15.226 6.33398 15.1327L4.70731 13.5727C4.56064 13.4327 4.51398 13.2127 4.58731 13.026C4.66731 12.8393 4.85398 12.7393 5.05398 12.7127L10.354 12.726C12.4673 12.726 14.1873 10.9993 14.1873 8.87933C14.1873 7.85933 13.7873 6.89266 13.0606 6.166C12.8673 5.97266 12.8673 5.65266 13.0606 5.45933C13.254 5.266 13.574 5.266 13.7673 5.45933C14.6806 6.37933 15.1873 7.59266 15.1873 8.87933C15.1873 11.5527 13.0206 13.726 10.354 13.726L6.30731 13.7127L7.03398 14.406C7.23398 14.5993 7.24064 14.9127 7.04731 15.1127C6.94064 15.2193 6.81398 15.2727 6.68064 15.2727Z" fill="white"/>
<path d="M8.18064 11.0527C7.90731 11.0527 7.68064 10.826 7.68064 10.5527V8.29267L7.55398 8.43267C7.36731 8.63934 7.05398 8.65267 6.84731 8.47267C6.64064 8.29267 6.62731 7.97267 6.80731 7.766L7.80731 6.65267C7.94731 6.49934 8.16731 6.446 8.36064 6.51934C8.55398 6.59934 8.68064 6.77934 8.68064 6.99267V10.5593C8.68064 10.8327 8.45398 11.0527 8.18064 11.0527Z" fill="white"/>
</svg>
