<svg width="19" height="18" viewBox="0 0 19 18" fill="none" xmlns="http://www.w3.org/2000/svg">
<path d="M13.6965 12.5625C13.5776 12.5625 13.4662 12.525 13.3622 12.45C13.1169 12.2625 13.0649 11.91 13.2507 11.6625C14.4173 10.095 14.4173 7.90496 13.2507 6.33746C13.0649 6.08996 13.1169 5.73746 13.3622 5.54996C13.6074 5.36246 13.9566 5.41496 14.1423 5.66246C15.5987 7.62746 15.5987 10.3725 14.1423 12.3375C14.0309 12.4875 13.8674 12.5625 13.6965 12.5625Z" fill="#EFEEE0"/>
<path d="M15.0563 14.4375C14.9374 14.4375 14.8259 14.4 14.7219 14.325C14.4767 14.1375 14.4247 13.785 14.6104 13.5375C16.5943 10.8675 16.5943 7.13246 14.6104 4.46246C14.4247 4.21496 14.4767 3.86246 14.7219 3.67496C14.9671 3.48746 15.3163 3.53996 15.5021 3.78746C17.7832 6.85496 17.7832 11.145 15.5021 14.2125C15.3981 14.3625 15.2272 14.4375 15.0563 14.4375Z" fill="#EFEEE0"/>
<path d="M10.7392 2.83504C9.90705 2.37004 8.84451 2.49004 7.75968 3.17254L5.59002 4.54504C5.44141 4.63504 5.27052 4.68754 5.09962 4.68754H4.4086H4.03708C2.23894 4.68754 1.2507 5.68504 1.2507 7.50004V10.5C1.2507 12.315 2.23894 13.3125 4.03708 13.3125H4.4086H5.09962C5.27052 13.3125 5.44141 13.365 5.59002 13.455L7.75968 14.8275C8.41355 15.24 9.05256 15.4425 9.64699 15.4425C10.0334 15.4425 10.4049 15.3525 10.7392 15.165C11.564 14.7 12.0247 13.7325 12.0247 12.4425V5.55754C12.0247 4.26754 11.564 3.30004 10.7392 2.83504Z" fill="#EFEEE0"/>
</svg>
