<svg width="197" height="156" viewBox="0 0 197 156" fill="none" xmlns="http://www.w3.org/2000/svg">
<ellipse cx="3.69265" cy="4.35182" rx="3.50277" ry="3.51759" fill="#F4F4F4"/>
<ellipse cx="3.69265" cy="25.4573" rx="3.50277" ry="3.51759" fill="#F4F4F4"/>
<ellipse cx="3.69265" cy="46.5628" rx="3.50277" ry="3.51759" fill="#F4F4F4"/>
<ellipse cx="3.69265" cy="67.6684" rx="3.50277" ry="3.51759" fill="#F4F4F4"/>
<ellipse cx="3.69265" cy="88.7739" rx="3.50277" ry="3.51759" fill="#F4F4F4"/>
<ellipse cx="3.69265" cy="109.879" rx="3.50277" ry="3.51759" fill="#F4F4F4"/>
<ellipse cx="3.69265" cy="130.985" rx="3.50277" ry="3.51759" fill="#F4F4F4"/>
<ellipse cx="3.69265" cy="152.09" rx="3.50277" ry="3.51759" fill="#F4F4F4"/>
<ellipse cx="24.7093" cy="4.35182" rx="3.50277" ry="3.51759" fill="#F4F4F4"/>
<ellipse cx="24.7093" cy="25.4573" rx="3.50277" ry="3.51759" fill="#F4F4F4"/>
<ellipse cx="24.7093" cy="46.5628" rx="3.50277" ry="3.51759" fill="#F4F4F4"/>
<ellipse cx="24.7093" cy="67.6684" rx="3.50277" ry="3.51759" fill="#F4F4F4"/>
<ellipse cx="24.7093" cy="88.7739" rx="3.50277" ry="3.51759" fill="#F4F4F4"/>
<ellipse cx="24.7093" cy="109.879" rx="3.50277" ry="3.51759" fill="#F4F4F4"/>
<ellipse cx="24.7093" cy="130.985" rx="3.50277" ry="3.51759" fill="#F4F4F4"/>
<ellipse cx="24.7093" cy="152.09" rx="3.50277" ry="3.51759" fill="#F4F4F4"/>
<ellipse cx="45.7259" cy="4.35182" rx="3.50277" ry="3.51759" fill="#F4F4F4"/>
<ellipse cx="45.7259" cy="25.4573" rx="3.50277" ry="3.51759" fill="#F4F4F4"/>
<ellipse cx="45.7259" cy="46.5628" rx="3.50277" ry="3.51759" fill="#F4F4F4"/>
<ellipse cx="45.7259" cy="67.6684" rx="3.50277" ry="3.51759" fill="#F4F4F4"/>
<ellipse cx="45.7259" cy="88.7739" rx="3.50277" ry="3.51759" fill="#F4F4F4"/>
<ellipse cx="45.7259" cy="109.879" rx="3.50277" ry="3.51759" fill="#F4F4F4"/>
<ellipse cx="45.7259" cy="130.985" rx="3.50277" ry="3.51759" fill="#F4F4F4"/>
<ellipse cx="45.7259" cy="152.09" rx="3.50277" ry="3.51759" fill="#F4F4F4"/>
<ellipse cx="66.7425" cy="4.35182" rx="3.50277" ry="3.51759" fill="#F4F4F4"/>
<ellipse cx="66.7425" cy="25.4573" rx="3.50277" ry="3.51759" fill="#F4F4F4"/>
<ellipse cx="66.7425" cy="46.5628" rx="3.50277" ry="3.51759" fill="#F4F4F4"/>
<ellipse cx="66.7425" cy="67.6684" rx="3.50277" ry="3.51759" fill="#F4F4F4"/>
<ellipse cx="66.7425" cy="88.7739" rx="3.50277" ry="3.51759" fill="#F4F4F4"/>
<ellipse cx="66.7425" cy="109.879" rx="3.50277" ry="3.51759" fill="#F4F4F4"/>
<ellipse cx="66.7425" cy="130.985" rx="3.50277" ry="3.51759" fill="#F4F4F4"/>
<ellipse cx="66.7425" cy="152.09" rx="3.50277" ry="3.51759" fill="#F4F4F4"/>
<ellipse cx="87.7591" cy="4.35182" rx="3.50277" ry="3.51759" fill="#F4F4F4"/>
<ellipse cx="87.7591" cy="25.4573" rx="3.50277" ry="3.51759" fill="#F4F4F4"/>
<ellipse cx="87.7591" cy="46.5628" rx="3.50277" ry="3.51759" fill="#F4F4F4"/>
<ellipse cx="87.7591" cy="67.6684" rx="3.50277" ry="3.51759" fill="#F4F4F4"/>
<ellipse cx="87.7591" cy="88.7739" rx="3.50277" ry="3.51759" fill="#F4F4F4"/>
<ellipse cx="87.7591" cy="109.879" rx="3.50277" ry="3.51759" fill="#F4F4F4"/>
<ellipse cx="87.7591" cy="130.985" rx="3.50277" ry="3.51759" fill="#F4F4F4"/>
<ellipse cx="87.7591" cy="152.09" rx="3.50277" ry="3.51759" fill="#F4F4F4"/>
<ellipse cx="108.776" cy="4.35182" rx="3.50277" ry="3.51759" fill="#F4F4F4"/>
<ellipse cx="108.776" cy="25.4573" rx="3.50277" ry="3.51759" fill="#F4F4F4"/>
<ellipse cx="108.776" cy="46.5628" rx="3.50277" ry="3.51759" fill="#F4F4F4"/>
<ellipse cx="108.776" cy="67.6684" rx="3.50277" ry="3.51759" fill="#F4F4F4"/>
<ellipse cx="108.776" cy="88.7739" rx="3.50277" ry="3.51759" fill="#F4F4F4"/>
<ellipse cx="108.776" cy="109.879" rx="3.50277" ry="3.51759" fill="#F4F4F4"/>
<ellipse cx="108.776" cy="130.985" rx="3.50277" ry="3.51759" fill="#F4F4F4"/>
<ellipse cx="108.776" cy="152.09" rx="3.50277" ry="3.51759" fill="#F4F4F4"/>
<ellipse cx="129.792" cy="4.35182" rx="3.50277" ry="3.51759" fill="#F4F4F4"/>
<ellipse cx="129.792" cy="25.4573" rx="3.50277" ry="3.51759" fill="#F4F4F4"/>
<ellipse cx="129.792" cy="46.5628" rx="3.50277" ry="3.51759" fill="#F4F4F4"/>
<ellipse cx="129.792" cy="67.6684" rx="3.50277" ry="3.51759" fill="#F4F4F4"/>
<ellipse cx="129.792" cy="88.7739" rx="3.50277" ry="3.51759" fill="#F4F4F4"/>
<ellipse cx="129.792" cy="109.879" rx="3.50277" ry="3.51759" fill="#F4F4F4"/>
<ellipse cx="129.792" cy="130.985" rx="3.50277" ry="3.51759" fill="#F4F4F4"/>
<ellipse cx="129.792" cy="152.09" rx="3.50277" ry="3.51759" fill="#F4F4F4"/>
<ellipse cx="150.809" cy="4.35182" rx="3.50277" ry="3.51759" fill="#F4F4F4"/>
<ellipse cx="150.809" cy="25.4573" rx="3.50277" ry="3.51759" fill="#F4F4F4"/>
<ellipse cx="150.809" cy="46.5628" rx="3.50277" ry="3.51759" fill="#F4F4F4"/>
<ellipse cx="150.809" cy="67.6684" rx="3.50277" ry="3.51759" fill="#F4F4F4"/>
<ellipse cx="150.809" cy="88.7739" rx="3.50277" ry="3.51759" fill="#F4F4F4"/>
<ellipse cx="150.809" cy="109.879" rx="3.50277" ry="3.51759" fill="#F4F4F4"/>
<ellipse cx="150.809" cy="130.985" rx="3.50277" ry="3.51759" fill="#F4F4F4"/>
<ellipse cx="150.809" cy="152.09" rx="3.50277" ry="3.51759" fill="#F4F4F4"/>
<ellipse cx="171.826" cy="4.35182" rx="3.50277" ry="3.51759" fill="#F4F4F4"/>
<ellipse cx="171.826" cy="25.4573" rx="3.50277" ry="3.51759" fill="#F4F4F4"/>
<ellipse cx="171.826" cy="46.5628" rx="3.50277" ry="3.51759" fill="#F4F4F4"/>
<ellipse cx="171.826" cy="67.6684" rx="3.50277" ry="3.51759" fill="#F4F4F4"/>
<ellipse cx="171.826" cy="88.7739" rx="3.50277" ry="3.51759" fill="#F4F4F4"/>
<ellipse cx="171.826" cy="109.879" rx="3.50277" ry="3.51759" fill="#F4F4F4"/>
<ellipse cx="171.826" cy="130.985" rx="3.50277" ry="3.51759" fill="#F4F4F4"/>
<ellipse cx="171.826" cy="152.09" rx="3.50277" ry="3.51759" fill="#F4F4F4"/>
<ellipse cx="192.842" cy="4.35182" rx="3.50277" ry="3.51759" fill="#F4F4F4"/>
<ellipse cx="192.842" cy="25.4573" rx="3.50277" ry="3.51759" fill="#F4F4F4"/>
<ellipse cx="192.842" cy="46.5628" rx="3.50277" ry="3.51759" fill="#F4F4F4"/>
<ellipse cx="192.842" cy="67.6684" rx="3.50277" ry="3.51759" fill="#F4F4F4"/>
<ellipse cx="192.842" cy="88.7739" rx="3.50277" ry="3.51759" fill="#F4F4F4"/>
<ellipse cx="192.842" cy="109.879" rx="3.50277" ry="3.51759" fill="#F4F4F4"/>
<ellipse cx="192.842" cy="130.985" rx="3.50277" ry="3.51759" fill="#F4F4F4"/>
<ellipse cx="192.842" cy="152.09" rx="3.50277" ry="3.51759" fill="#F4F4F4"/>
</svg>
