<svg width="17" height="17" viewBox="0 0 17 17" fill="none" xmlns="http://www.w3.org/2000/svg">
<g id="vuesax/bold/shuffle">
<g id="vuesax/bold/shuffle_2">
<g id="shuffle">
<path id="Vector" d="M14.514 12.7594C14.514 12.7461 14.5073 12.7328 14.5073 12.7194C14.5006 12.6661 14.494 12.6128 14.474 12.5661C14.4473 12.5061 14.414 12.4594 14.374 12.4128C14.374 12.4128 14.374 12.4061 14.3673 12.4061C14.3206 12.3594 14.2673 12.3261 14.2073 12.2994C14.1473 12.2728 14.0806 12.2594 14.014 12.2594L10.9006 12.2728C10.9006 12.2728 10.9006 12.2728 10.894 12.2728C10.494 12.2728 10.1073 12.0861 9.86729 11.7661L9.05396 10.7194C8.88729 10.4994 8.57396 10.4594 8.35396 10.6328C8.13396 10.8061 8.09396 11.1128 8.26729 11.3328L9.08062 12.3794C9.51396 12.9394 10.194 13.2728 10.9006 13.2728H10.9073L12.8073 13.2661L12.334 13.7394C12.1406 13.9328 12.1406 14.2528 12.334 14.4461C12.434 14.5461 12.5606 14.5928 12.6873 14.5928C12.814 14.5928 12.9406 14.5461 13.0406 14.4461L14.374 13.1128C14.4206 13.0661 14.454 13.0128 14.4806 12.9528C14.5006 12.8861 14.514 12.8194 14.514 12.7594Z" fill="white"/>
<path id="Vector_2" d="M5.62731 5.23275C5.19398 4.63275 4.50064 4.27942 3.76064 4.27942C3.75398 4.27942 3.75398 4.27942 3.74731 4.27942L2.01398 4.28609C1.74064 4.28609 1.51398 4.51275 1.51398 4.78609C1.51398 5.05942 1.74064 5.28609 2.01398 5.28609L3.75398 5.27942H3.76064C4.18064 5.27942 4.57398 5.47942 4.81398 5.81942L5.53398 6.81942C5.63398 6.95275 5.78731 7.02609 5.94064 7.02609C6.04064 7.02609 6.14731 6.99275 6.23398 6.93275C6.46064 6.76609 6.50731 6.45275 6.34731 6.23275L5.62731 5.23275Z" fill="white"/>
<path id="Vector_3" d="M14.5073 4.82606C14.5073 4.81273 14.514 4.79939 14.514 4.79273C14.514 4.72606 14.5006 4.65939 14.474 4.59939C14.4473 4.53939 14.414 4.48606 14.3673 4.43939L13.034 3.10606C12.8406 2.91273 12.5206 2.91273 12.3273 3.10606C12.134 3.29939 12.134 3.61939 12.3273 3.81273L12.8006 4.28606L10.9806 4.27939C10.974 4.27939 10.974 4.27939 10.9673 4.27939C10.2006 4.27939 9.48064 4.65939 9.05398 5.30606L4.79398 11.6927C4.55398 12.0527 4.14731 12.2727 3.71398 12.2727H3.70731L2.01398 12.2594C1.74064 12.2594 1.51398 12.4794 1.51398 12.7594C1.51398 13.0327 1.73398 13.2594 2.01398 13.2594L3.71398 13.2661C3.72064 13.2661 3.72064 13.2661 3.72731 13.2661C4.50064 13.2661 5.21398 12.8861 5.64064 12.2394L9.90064 5.85273C10.1406 5.49273 10.5473 5.27273 10.9806 5.27273H10.9873L14.014 5.28606C14.0806 5.28606 14.1406 5.27273 14.2073 5.24606C14.2673 5.21939 14.3206 5.18606 14.3673 5.13939C14.3673 5.13939 14.3673 5.13273 14.374 5.13273C14.414 5.08606 14.454 5.03939 14.474 4.97939C14.494 4.93273 14.5006 4.87939 14.5073 4.82606Z" fill="white"/>
</g>
</g>
</g>
</svg>
